<svg xmlns="http://www.w3.org/2000/svg" viewBox="0 0 64 64">
  <title>BestestGame</title>
  <g transform="rotate(-4 32 32)">
    <path fill="#b5532d" d="M12.0 4.0H40.0A17 7 0 0 1 57.0 11.0V43.0A7 17 0 0 1 50.0 60.0H27.0A20 5 0 0 1 7.0 55.0V24.0A5 20 0 0 1 12.0 4.0Z"/>
    <path fill="#fff3e3" d="M32 49H22.82Q22.58 49 22.41 48.83Q22.24 48.66 22.24 48.42V15.58Q22.24 15.34 22.41 15.17Q22.58 15 22.82 15H30.93Q35.79 15 38.53 17.33Q41.28 19.66 41.28 24.28Q41.28 29.09 37.97 31.27Q37.78 31.42 37.93 31.56Q41.76 34.28 41.76 39.63Q41.76 44.14 39.04 46.57Q36.32 49 32 49ZM29.09 21.12V28.75Q29.09 28.99 29.33 28.99H31.08Q32.73 28.99 33.65 27.94Q34.57 26.9 34.57 25.01Q34.57 23.01 33.68 21.95Q32.78 20.88 31.08 20.88H29.33Q29.09 20.88 29.09 21.12ZM34.91 38.61Q34.91 36.47 33.99 35.21Q33.07 33.94 31.51 33.94H29.33Q29.09 33.94 29.09 34.19V42.83Q29.09 43.07 29.33 43.07H31.47Q33.07 43.07 33.99 41.91Q34.91 40.74 34.91 38.61Z"/>
  </g>
</svg>
